
        <svg xmlns="http://www.w3.org/2000/svg" xmlns:xlink="http://www.w3.org/1999/xlink" version="1.1" width="3215.4643708511644" 
        height="3178.09947005467" viewBox="0 0 3215.4643708511644 3178.09947005467">
			
			<g transform="scale(10.773218542558203) translate(10, 10)">
				<defs id="SvgjsDefs8806"><linearGradient id="SvgjsLinearGradient8815"><stop id="SvgjsStop8816" stop-color="#834f2a" offset="0"></stop><stop id="SvgjsStop8817" stop-color="#dba173" offset="0.5"></stop><stop id="SvgjsStop8818" stop-color=" #834F2A" offset="1"></stop></linearGradient><linearGradient id="SvgjsLinearGradient8819"><stop id="SvgjsStop8820" stop-color="#834f2a" offset="0"></stop><stop id="SvgjsStop8821" stop-color="#dba173" offset="0.5"></stop><stop id="SvgjsStop8822" stop-color=" #834F2A" offset="1"></stop></linearGradient><linearGradient id="SvgjsLinearGradient8823"><stop id="SvgjsStop8824" stop-color="#834f2a" offset="0"></stop><stop id="SvgjsStop8825" stop-color="#dba173" offset="0.5"></stop><stop id="SvgjsStop8826" stop-color=" #834F2A" offset="1"></stop></linearGradient></defs><g id="SvgjsG8807" featureKey="rootContainer" transform="matrix(2.579737742026655,0,0,2.579737742026655,-0.14332316601830147,0)" fill="#d5f0fe"><g xmlns="http://www.w3.org/2000/svg"><path d="M19.8 15.3h.5l-.4-.2zm.5.1zm.8-.7c0 .1 0 .1.1.1l.4-.3c-.2-.1-.3-.1-.5.2zm.4-.2zm-4.1 2.3zm-.2.6l.3-.2c.1-.1.1-.2.1-.2h-.2l-.2.4c-.1-.1-.1 0 0 0zm2.2-2.9h-.1l-.2.2h.3zm-2.1 2.4l.6-.5c.1-.1.1-.2.1-.3h-.3l-1.2 1.1-.2.4.7-.6zm-1.1.8z"></path><path d="M9.7 25v-.2a1.7 1.7 0 0 1 .7-1.1l.9-.6.5-.6.7-.7.4-.4.4-.3a1.9 1.9 0 0 0 .8-.9l.4-.5a5.9 5.9 0 0 0 1-1.3l.2-.3.3-.2-.2-.3.4-.5c.8-.6 1.4-1.4 2.2-2l.3-.3a1.4 1.4 0 0 1 .5-.6l.8-.4h.4a1.4 1.4 0 0 0 .7-.6V13a3.5 3.5 0 0 1 1.3-1.4l.8-.5.2-.2.4-.4 1-.5h.2l-1.1.4-1.4 1c-.6.5-1.4.6-1.8 1.4h.3c-.7.2-1.4.5-1.7 1.2s-.8.6-1.2.9a.4.4 0 0 0-.3.4c-.8-.1-1.1.5-1.5.9v.8a3.9 3.9 0 0 0-1.6 1.4c-1.6.1-1.6 2.1-3 2.5h-.1a.2.2 0 0 0 0 .2c-.3 0-.5.2-.4.5l-.2.5c-.7.4-.6 1.1-1 1.7-.8.5-1.1 1.5-1.7 2.2l.3.5.2-.2a11.6 11.6 0 0 1 .9-1.3zM53.9 3.3l.6.2h.2a2.2 2.2 0 0 0 1.4.2 4.1 4.1 0 0 1 1.9.1h1.2a1.4 1.4 0 0 1 1.2.3.1.1 0 0 1 0 .1H60a.1.1 0 0 0 0 .1h.7a1.8 1.8 0 0 1 1.3 0c.2 0 .1.1.2.2l.5.2h-.2c-.2-.4-.5-.4-.8-.4a9.7 9.7 0 0 0-4.3-.9h-.8A9.8 9.8 0 0 0 53 3h.2zm7.3 3.1zM50.3 4.7zm10.9 1.7h.2-.2zM19 14.7zm32.1-10zm17.6 2.2a.9.9 0 0 0 1 .2h.6a3.1 3.1 0 0 0-1.8-.7l-.7-.2.5.3zm-3.4-1.3c0 .1.1.2.2.3h.2l.5-.3a4.2 4.2 0 0 0-1.7-.6l.7.4zm7.4 2.7l.8.5c-.2-.3-.4-.5-.8-.5z"></path><path d="M99 76.1l.6-1.6.6-1.5c.2-.5.6-1.8.8-2.6a1.7 1.7 0 0 1 .3-.7h.1v-1.1c.5-.1.4-.6.5-.9l.8-4.7a12.7 12.7 0 0 0 0-6.2 1.9 1.9 0 0 0-.5-1.6v-4.3c-.3-.9.3-1.9-.4-2.7L101 45a.4.4 0 0 0 0-.2l-.2-.6a.5.5 0 0 1 0-.4h.1c.3 0 .3-.5.3-.9a3 3 0 0 0-.4-1.1l-.3-.4a1.1 1.1 0 0 1-.2-.7 6.7 6.7 0 0 0-.2-2v-.6c-.2-.7-.4-1.5-.6-2.2l-.2-.5a2.5 2.5 0 0 1-.4-1.1 2.5 2.5 0 0 0-.3-.8l-.6-1a.8.8 0 0 0-.6-.2h-.1V32h-.2v-.8H97V31a.4.4 0 0 0 0-.1v-.2c.1-.2.1-.3-.1-.5a1.8 1.8 0 0 1-.4-.6l-.2-.6a2.9 2.9 0 0 0-.7-1.2 2.2 2.2 0 0 1-.5-.7l-.7-1.6a4.3 4.3 0 0 0-.6-1l-.6-.8a2.4 2.4 0 0 1-.4-.8l-.2-.3a.6.6 0 0 1-.1-.5.5.5 0 0 0-.2-.4l-.4-.3v.2c.1.2 0 .3-.1.3h-.2l.3 1 .3.5.7.9h-.1l-.2-.2-.2-.2a1.3 1.3 0 0 0-1.2-1.1v-.7c-.3-1.2-1.6-1.3-2.2-2.1a1.5 1.5 0 0 0-1.1-.9l-.8-.9a11.3 11.3 0 0 0-3.1-3l-.8-.6-.4-.3c-.7-.7-1-1.8-2.2-1.8l-.8-.5-.9-.7a2.2 2.2 0 0 0-1.8-1.3 5.1 5.1 0 0 0-2.3-1.2l.2.2.5.4 1.3.7a8.5 8.5 0 0 1 2.1 1.6 6.8 6.8 0 0 0 1.5 1.1l.6.5c.1.1.2.2.1.3H81l-.9-.3a5.6 5.6 0 0 1-2-.8l-1.2-.6-1.3-.7h-.2c-.3-.1-.4-.4-.8-.5l-.8-.2-2.5-.5a2.6 2.6 0 0 1-.9-.7 1.7 1.7 0 0 1-.9-.3l-1-.4a18.1 18.1 0 0 1-2.8-.8l-.6-.2-1-.3h-.5l-.2-.3v-.1h-1.6l-.6-.5-.4.2-.4.2h-.2l-.9-.5c-.6.6-1.1-.2-1.6-.1l-1-.3a1.2 1.2 0 0 1-1.2 0h-1.2a.6.6 0 0 1-.5-.6l.3-.2h.6a.7.7 0 0 1 .1.3c0 .2.2.2.5.2h.2l-.4-.6a1.1 1.1 0 0 0-1-.2l-1 .3H53c.3.2.2.3.2.5h-1.6l-.4-.2-.8-.4h-.1l-.7-.2h-2.3l.4-.2.8-.2h.3l1.7-.3 1.1-.2.6-.2h-1.1a8.4 8.4 0 0 0-3.4 0h-1.3L43 3.6c-1.4.1-2.8 0-3.9 1.2-2.5-.4-4.7.7-6.9 1.8l-2.2.9a6.7 6.7 0 0 0-3.7 1.8h.3l.5-.3.8-.5 1.3-.6 1-.2a6 6 0 0 1 2-.9l.9-.3h.2c.1.2.5 0 .7 0h.2c.1 0 .1.1 0 .1l-.6.4 1-.3.8-.2-1.3.7-1.3.4a1 1 0 0 0-.6.5l-.3.5h.3l.4-.2a1.4 1.4 0 0 1 .9-.6l1.5-.5h.5a.1.1 0 0 1 .1.2c-.2.2-.6.3-.8.5h.2l-3.2.9-3.8 1.6a5.2 5.2 0 0 1-2.3 1.2 6.6 6.6 0 0 1-1.7 1.1l-.8.2a1.5 1.5 0 0 1-1.3.9l-.3.5a3.7 3.7 0 0 1-1.2 1.1h-.1v-.1l-.2.2-.2.2-1 .2h-.5l-.4.5c-.1.1-.1.2 0 .2h.1c-.6.6-1 1.4-1.8 1.7L15 19.9c-.6 1.2-1.8 1.6-2.6 2.6s-1.4 3.9-3.9 4.3l-.2-.3-.2.5a2.7 2.7 0 0 1-.4.8 16.9 16.9 0 0 0-1.2 2.1.8.8 0 0 0-.1.5 1.4 1.4 0 0 1-.2.8l-.5 1.1h.2c.3 0 .3.3.4.6l.8-1.1a2.2 2.2 0 0 1 .6-.7 2 2 0 0 0 .9-.9l.3-.3.4-.4.6-1.1h.2c.1.1.1.1.2 0l.2-.4h.5v.8l.5-.5a.5.5 0 0 0 0-.5.4.4 0 0 1 .1-.3 1.5 1.5 0 0 0 .3-.5 1.3 1.3 0 0 1 .8-.9l.3-.2.3-.3a2.4 2.4 0 0 0 .8-1l-.2-.3c0-.1.1-.3.2-.4h.5l.6-.8.6-.3h.2a48.8 48.8 0 0 0-5.5 7.2h-.1.1a48.4 48.4 0 0 0-5.3 11.2h-.5l-.5-.4c-.2-.2-.1-.7-.4-.9h.1c.3-.5-.1-1.2.3-1.7s.1-1.4-.9-1.2-1.5.5-1.3 1.5-1 1.8-1.1 2.9-.5.5-.3.9v3.9c.1.8-.5 1.8.8 2.1l1.3.9c.1.5-.5 1.6.9 1.3a49.2 49.2 0 0 0-.3 5c0 1.1.1 2.2.1 3.3v-.4c-.1-.4-.1-.8-.2-1.3l-.3.3v-.2h-.5c0 .5-.1.8-.4.9a.9.9 0 0 0-.1.5c0 .1.1.3.2.2s.4.2.7.4-.2.3-.4.2-.2.1-.2.3v.3l.5 1.5c0 .3-.1.6-.1.9a1.7 1.7 0 0 0 .2.8h-.3v-.3l-.7-.2v-.6a1.5 1.5 0 0 0 0-.5 14.6 14.6 0 0 1-.3-1.8 16.6 16.6 0 0 1-.2-3.5.9.9 0 0 1 .1-.5v.2a2.9 2.9 0 0 1 .1.5.8.8 0 0 0 .1.4c.1.2.2.4.4.4s.1-.1.1-.2a2.1 2.1 0 0 0-.1-.5 4.2 4.2 0 0 1-.3-1.3 1.5 1.5 0 0 0-.3-.7 1.6 1.6 0 0 1-.2-.9v-.8c0-.3.1-.6.1-.9a.5.5 0 0 0-.1-.4h-.1c-.8.4-.7.2-1 1.6V55c0 .7-.1 1.4 0 2.1a10.8 10.8 0 0 0 .2 2.3 1.8 1.8 0 0 1 0 .5 3.1 3.1 0 0 0 .1.9 5.9 5.9 0 0 1 .1 1.3 3.9 3.9 0 0 0 .2 1.7 1.2 1.2 0 0 1 0 .4 2.1 2.1 0 0 0 .1.8 4.9 4.9 0 0 1 .2.9 14 14 0 0 0 .5 2.2 5 5 0 0 1 .2 1 1.7 1.7 0 0 0 .3.7 2.9 2.9 0 0 1 .5 1.2 8.5 8.5 0 0 0 .3 1l.4 1.4a5.4 5.4 0 0 0 .6 1.5 8.5 8.5 0 0 1 .8 2.1l.2.5a2.1 2.1 0 0 1 .5 1 2.1 2.1 0 0 0 .4.8 1 1 0 0 1 .2.5c.1.3.2.4.4.3h.1v.9l.5 1 .5 1 1.1 1.2.4.4c.3.3.7.5.9 1l.4.3a.7.7 0 0 1 .3.5l.2.7a3.3 3.3 0 0 0 .6.9l.4.2h.3a.2.2 0 0 1 .1.3 2.5 2.5 0 0 0 0 .5.9.9 0 0 0 .4.5h.2c.4-.1.8.2 1.2.7h.1c0-.1.1-.1 0-.2v-.2c0-.1.1-.2.2-.1a.7.7 0 0 1 .3.6v.2a4.3 4.3 0 0 0 .4 1.2c.5.3.5.3.5.1s0-.2.2-.2h.4l.2.3.8.5c.7.8 1.8.7 2.6 1.2l1.7 1.7h.2a2.9 2.9 0 0 0 1.6 1.6 1.3 1.3 0 0 0 1 .6c0 .5.6.6 1.1.7a1.2 1.2 0 0 0 .8.4h.2a1.7 1.7 0 0 0 1.5.5l.9.8 2.4.9v.2c.5 1.1 1.7.7 2.5 1l1.1.4h.4c1.2.3 2.4.9 3.7.5a.7.7 0 0 0 0 .4c1.1.7 2.4 0 3.6.4a2.9 2.9 0 0 0 1.7.1h.1l.8.2h.3l.9.2h.3a.5.5 0 0 1 .5 0 7.9 7.9 0 0 0 1.5.4h.6a.7.7 0 0 1 .7 0h3.9a5 5 0 0 0 1.6-.1h1l.5-.2H60l.6-.2.5-.3h2.2v.6H62l-1.2.2c-.4.1-.7 0-1 .1a2.4 2.4 0 0 1-1 .2l-1.3.3h-.4a3.1 3.1 0 0 0-1.5.1h-1.8a1.1 1.1 0 0 1-.9 0h-4.5a1.3 1.3 0 0 0-1.1.3H47l-.3-.2v-.3h-1.2a4.1 4.1 0 0 0-1.3-.3h-2.5l-.7-.2-.5-.2-2.1-.4h-.5l-.5-.2-2.1-.7-1.4-.4h-2.2c-.1 0-.1.1-.1.2h.2c1.3.5 2.6.9 3.9 1.5h.3l.9.2 1.4.4h1.3l.6.2.7.3 1.7.3 1.1.2 1.1.2h.8l.8.2h3.1l1 .2h2.3l1-.2H56c.4 0 .6-.1.7-.3h1a1 1 0 0 0 .8-.3c-.1.1 0 .1.1.2h.4v-.2c0-.1 0-.1.2-.2s.6-.1.7.1h.4l.3-.2c.2 0 .2 0 .2.1h.7l.5-.2.8-.4c.1.3.4.4 1.3.2l1.3-.4h1.2c.9-.1 2 0 2.7-.7h.2l.4-.3 1.1-.3a6.1 6.1 0 0 0 2-.8l.4-.2h.1l.9-.6.4-.2.5-.2h.4c.4-.1.4-.1.5-.4s0-.1-.2-.1h-.1l.4-.5h.2c.3-.1.5-.2.7-.1h.2a1.3 1.3 0 0 0 .9-.9c.3-.4 1.1-.2 1.3-.8l4.3-3.1c1.1-.1 1.4-1.1 2.2-1.7s2.3-1.1 3-2.2l.9-.4h.1a1 1 0 0 0 1.2-.7v.4c.8-.4 1.8.3 2.6-.5s0-2.7 1-3.8l.7-.5a12.1 12.1 0 0 0 1.5-4.2l.2-.2c0-.3 0-.7.4-.9a.9.9 0 0 0 .2-1.2h-.2a.3.3 0 0 0 0-.3c.7 0 .8-.7 1.2-1V77a.5.5 0 0 1 0-.2 3.8 3.8 0 0 0 .1-.7zM5.9 32.2z"></path><path d="M26.4 9.3l-.3.2-.4.3.5-.2zm6.1-2h.1l.3-.2h-.4zm-2.6 1l-.1.1h.1v-.1zm-1.5 1.4zm1.3-.2zm-6.3 3.1zM9.2 26.2l-.4.4H9a.4.4 0 0 0 .2-.4zm3-3.5a2.1 2.1 0 0 0 .3-.6 1.5 1.5 0 0 0-.5.5c-.1.1-.1.2 0 .2zM11 24.2V24c-.2 0-.5.3-.8.3v.2c.3.3.4.2.8-.3zm3 66.2zM73.9 9.2h.1l-.5-.3zm-2.5-1.4c.5-.1.8.4 1.2.5h.1l-.3-.2-1-.5-1.1-.5.3.2zM52.8 3.1zm11.7 2h-.1l-1.2-.2h.5zm2 .7l1.3.4a3.3 3.3 0 0 0-1.3-.4zm-9 0a1 1 0 0 0 .2-.5h-.5l-.3.3.4.3zm9 1.6zM49.9 4.2zm2.9.7zM48.5 4zm13.8 2.1a.5.5 0 0 0 0 .1zm44.8 52.3h-.3V58h.3c.1 0 .2-.3.1-.4s-.1-.7-.3-.8a.3.3 0 0 1-.2-.3l.2-.4a.4.4 0 0 0 0-.2h-.2l-.2-.3c-.1.3-.2.6-.4.7a.5.5 0 0 0 0 .2c0 .1 0 .2-.1.2h-.1a1.1 1.1 0 0 1-.1.3 2.3 2.3 0 0 0-.4.9.4.4 0 0 0 .1.4h.1a1.7 1.7 0 0 0-.1.8v.4a1.8 1.8 0 0 1-.1.5h-.1l-.4.7v.6a1.5 1.5 0 0 1-.3 1.1h-.2l-.2-.2a.9.9 0 0 1-.1-.8 6.5 6.5 0 0 0 .1-1.7c0-.1-.1-.2-.1-.2a.5.5 0 0 0-.1.3v.6c0 .2-.1.6-.3.7s-.1.2-.1.3l-.2.6.3.5c-.2.2-.4.1-.5-.1v1h.3v.4a4.2 4.2 0 0 0-.3 1.4 3.3 3.3 0 0 0 0 .4 4 4 0 0 1-.2 1.3 2 2 0 0 0 0 .6l-.3.7a3.2 3.2 0 0 1-.3.7l-.3.6-.9 2.7c.3.9-.4 1.5-.8 2.1a2.7 2.7 0 0 1-.8 2.3v.4c0 .1.1.2.3.1l.4-.3.2-.4h.2c.1.1.2.1.4-.1h.2a.5.5 0 0 1 .1.6 2.9 2.9 0 0 0-.1.8c0 .1 0 .2.1.2h.2c.1.1.2 0 .3-.3l.2-.5h.3c.4-.1.4-.1.6-.6l.5-.9.3-.6.4-1a1.6 1.6 0 0 1 .3-1 .6.6 0 0 0 .1-.6c0-.2 0-.3.2-.6l.3-.4.5-1a4.7 4.7 0 0 1 .2-.9 3 3 0 0 0 .3-1.3 3.8 3.8 0 0 1 .3-.9v-.5c-.1-.2-.1-.2 0-.6s.1-.2.2-.2a.4.4 0 0 1 .1.3l.2-.5a2.3 2.3 0 0 0 .2-.9v-.3c0-.1 0-.3-.1-.3v.4c-.2 0-.3.2-.5.3a6.4 6.4 0 0 0 .1-.8l.4-.2a.7.7 0 0 0 .2-.6 1.4 1.4 0 0 1 0-.3 4.8 4.8 0 0 0 .2-1.4v-.2l.3-1h.1a.3.3 0 0 0 .1-.3h-.1a.9.9 0 0 1 .2-.8 1.5 1.5 0 0 0-.9-1zm-1.2 7.8zm-.2-9.9zm0 0zM9.1 30.8a.3.3 0 0 0 0-.2l-.2-.2-.2.2-.3.6c0 .3-.3.6-.3.9v.2h.1zm96.3 24.8h.1a1.7 1.7 0 0 0 .2-1.2.5.5 0 0 1 .2-.5h.1v-.2l-.2-.2h-.1c-.1.1-.2.3-.3.3s-.1.1-.1.3v.3a2.2 2.2 0 0 0 .1 1.2zM13.2 90.1c-.1 0 0 .2 0 .3l.8.8h.1c-.2-.3-.3-.6-.2-.7a.9.9 0 0 1-.5-.2zm.8.3zm92.3-35.7h.1a2 2 0 0 0 0-.6c-.3.1-.3.1-.3.6s.1.1.2 0z"></path><path d="M106.7 62a.6.6 0 0 0 .1-.5c0-.1-.1-.2-.1-.1h-.2v.2c0 .4.1.5.2.4zm.1-8.2h-.1v.6a1 1 0 0 0 .1-.6zM17.1 92.6h-.2v.2l.2.2h.2v-.2zm86.6-33.3c0-.1 0-.1-.1-.1zM9.9 86.5l.5.5-.4-.6z"></path><circle cx="10.5" cy="87.1" transform="rotate(-24.8 10.4 87.159)"></circle><path d="M9.7 30.1h-.1v.2-.2h.1zm83.2-6.6l-.2-.3h-.1zm-14.7 77.1zM5.9 32.2zm-.1.2a.3.3 0 0 0 .1-.2v.2zm1.9-4.9zM61.5 2.4zm42.8 58.2v.1-.1zM16.4 92.5h-.1c.1.1.2 0 .1-.1zm.2.7h.1l-.1-.1v.1zm73.9-71.3zm15.2 34.4zM14.6 91.7zm92.1-37zm-.8 11.4zM34.6 0z"></path></g></g><g id="SvgjsG8808" featureKey="symbolFeature-0" transform="matrix(1.4843560775127367,0,0,1.4843560775127367,67.7504609522321,40.649458160825716)" fill="url(#SvgjsLinearGradient8815)"><g xmlns="http://www.w3.org/2000/svg" fill="none" stroke="black" font-family="Times New Roman" font-size="16" transform="scale(1 -1)"><g transform="translate(0 -96)"><g><path d="M 21.633,34.925 C 24.973,46.855 40.837,53.71 46.922,66.223 C 49.866,72.279 48.49,83.461 43.464,87.939 C 43.197,88.178 42.09,90.326 43.217,89.521 C 54.416,81.327 63.521,70.509 59.309,60.068 C 53.464,45.577 38.409,38.34 38.519,23.585 C 38.566,17.447 43.088,12.523 48.838,7.375 L 49.073,6.299 C 34.143,10.56 17.742,21.028 21.633,34.925 Z M 59.314,18.723 C 67.987,26.524 73.282,31.263 71.043,40.298 C 73.766,36.119 76.295,30.323 74.135,25.806 C 72.203,21.769 70.28,18.956 63.244,15.02 C 59.515,12.935 56.712,10.677 54.37,6.898 C 54.248,10.853 55.011,14.852 59.314,18.723 Z M 49.686,32.153 C 53.003,38.255 57.845,42.622 62.538,48.882 C 65.869,53.325 68.92,60.704 65.731,66.728 L 65.937,67.016 C 70.824,61.556 71.028,52.654 69.495,46.059 C 67.086,35.69 58.5,31.5 53.511,23.918 C 51.557,20.948 50.446,17.311 51,13.5 C 45.461,18.021 46.717,26.69 49.686,32.153 Z" stroke-linejoin="miter" stroke-linecap="round" stroke="none" stroke-width="0.75" fill="url(#SvgjsLinearGradient8815)" marker-start="none" marker-end="none" stroke-miterlimit="79.8403193612775"></path></g></g></g></g><g id="SvgjsG8809" featureKey="nameLeftFeature-0" transform="matrix(1.7876655330119833,0,0,1.7876655330119833,118.9999996803405,181.8081233152612)" fill="url(#SvgjsLinearGradient8819)"><path d="M13.08 6.82 c0.2 0 0.36 0.16 0.36 0.36 c0 0.22 -0.16 0.38 -0.36 0.38 l-0.32 0 c-0.42 0 -0.86 0.28 -1.06 0.64 l-3.14 5.772 l0 4.588 c0 0.36 0.28 0.7 0.72 0.7 l0.28 0 c0.22 0 0.38 0.16 0.38 0.36 c0 0.22 -0.16 0.38 -0.38 0.38 l-5.4 0 c-0.22 0 -0.38 -0.16 -0.38 -0.38 c0 -0.2 0.16 -0.36 0.38 -0.36 l0.28 0 c0.44 0 0.72 -0.34 0.72 -0.7 l0 -3.8 l-3.64 -6.56 c-0.2 -0.36 -0.4 -0.64 -0.82 -0.64 l-0.32 0 c-0.22 0 -0.38 -0.16 -0.38 -0.38 c0 -0.2 0.16 -0.36 0.38 -0.36 l5.68 0 c0.2 0 0.36 0.16 0.36 0.36 c0 0.22 -0.16 0.38 -0.36 0.38 l-0.22 0 c-0.506 0 -0.736 0.216 -0.5 0.64 l2.718 4.928 l2.642 -4.928 c0.18199 -0.32 -0.06 -0.64 -0.48 -0.64 l-0.22 0 c-0.22 0 -0.38 -0.16 -0.38 -0.38 c0 -0.2 0.16 -0.36 0.38 -0.36 l3.08 0 z"></path></g><g id="SvgjsG8810" featureKey="nameRightFeature-0" transform="matrix(1.78766570349707,0,0,1.78766570349707,151.3143686060302,181.80811959527682)" fill="url(#SvgjsLinearGradient8823)"><path d="M4.4628 6.82 c0.093008 0 0.15762 0.06463 0.15762 0.15783 c0 0.089004 -0.064804 0.15381 -0.15781 0.15381 l-0.51801 0 c-0.2972 0 -0.48202 0.229 -0.48202 0.478 l0 14.726 c0 1.5504 -1.2296 2.3848 -2.7558 2.3848 c-1.267 0 -2.5608 -0.6938 -2.5608 -1.9462 c0 -0.769 0.3986 -1.1338 0.92 -1.1338 c0.4972 0 0.804 0.309 0.8082 0.7884 c-0.0041992 0.5366 -0.551 0.7014 -0.551 1.178 c0 0.42 0.498 0.782 1.1586 0.782 c1.1346 0 1.3526 -1.0214 1.3526 -2.1524 c0 -0.8882 -0.074394 -1.644 -0.074394 -2.6358 l0 -11.99 c0 -0.249 -0.1848 -0.478 -0.48202 -0.478 l-0.51801 0 c-0.093008 0 -0.15781 -0.064804 -0.15781 -0.15381 c0 -0.093204 0.064804 -0.15801 0.15781 -0.15801 l3.7028 0 z"></path></g>
			</g>
		</svg>
	